<mxfile host="app.diagrams.net" agent="Mozilla/5.0 (Windows NT 10.0; Win64; x64) AppleWebKit/537.36 (KHTML, like Gecko) Chrome/133.0.0.0 Safari/537.36" version="26.1.0">
  <diagram name="PÃ¡gina-1" id="YJJRnNdDditSqREs5Thc">
    <mxGraphModel dx="875" dy="2852" grid="1" gridSize="10" guides="1" tooltips="1" connect="1" arrows="1" fold="1" page="1" pageScale="1" pageWidth="827" pageHeight="1169" math="0" shadow="0">
      <root>
        <mxCell id="0" />
        <mxCell id="1" parent="0" />
        <mxCell id="VxfXFjRvV8mxgG-HYUAd-1" value="Inicio" style="strokeWidth=2;html=1;shape=mxgraph.flowchart.start_1;whiteSpace=wrap;fillColor=#d5e8d4;strokeColor=#82b366;" vertex="1" parent="1">
          <mxGeometry x="325" y="-2300" width="110" height="60" as="geometry" />
        </mxCell>
        <mxCell id="VxfXFjRvV8mxgG-HYUAd-3" value="NOTA1" style="html=1;strokeWidth=2;shape=manualInput;whiteSpace=wrap;rounded=1;size=26;arcSize=11;fillColor=#dae8fc;strokeColor=#6c8ebf;" vertex="1" parent="1">
          <mxGeometry x="330" y="-2210" width="100" height="60" as="geometry" />
        </mxCell>
        <mxCell id="VxfXFjRvV8mxgG-HYUAd-4" value="Fim" style="strokeWidth=2;html=1;shape=mxgraph.flowchart.start_1;whiteSpace=wrap;fillColor=#d5e8d4;strokeColor=#82b366;" vertex="1" parent="1">
          <mxGeometry x="315" y="-1430" width="110" height="60" as="geometry" />
        </mxCell>
        <mxCell id="VxfXFjRvV8mxgG-HYUAd-9" style="edgeStyle=orthogonalEdgeStyle;rounded=0;orthogonalLoop=1;jettySize=auto;html=1;exitX=0.5;exitY=1;exitDx=0;exitDy=0;entryX=0.5;entryY=0;entryDx=0;entryDy=0;" edge="1" parent="1" source="VxfXFjRvV8mxgG-HYUAd-5" target="VxfXFjRvV8mxgG-HYUAd-6">
          <mxGeometry relative="1" as="geometry" />
        </mxCell>
        <mxCell id="VxfXFjRvV8mxgG-HYUAd-5" value="NOTA2" style="html=1;strokeWidth=2;shape=manualInput;whiteSpace=wrap;rounded=1;size=26;arcSize=11;fillColor=#dae8fc;strokeColor=#6c8ebf;" vertex="1" parent="1">
          <mxGeometry x="330" y="-2130" width="100" height="60" as="geometry" />
        </mxCell>
        <mxCell id="VxfXFjRvV8mxgG-HYUAd-6" value="MEDIA = (NOTA1 + NOTA2) / 2" style="rounded=1;whiteSpace=wrap;html=1;absoluteArcSize=1;arcSize=14;strokeWidth=2;fillColor=#f5f5f5;fontColor=#333333;strokeColor=#666666;" vertex="1" parent="1">
          <mxGeometry x="282.5" y="-2040" width="195" height="100" as="geometry" />
        </mxCell>
        <mxCell id="VxfXFjRvV8mxgG-HYUAd-7" style="edgeStyle=orthogonalEdgeStyle;rounded=0;orthogonalLoop=1;jettySize=auto;html=1;exitX=0.5;exitY=1;exitDx=0;exitDy=0;exitPerimeter=0;entryX=0.5;entryY=0.167;entryDx=0;entryDy=0;entryPerimeter=0;" edge="1" parent="1" source="VxfXFjRvV8mxgG-HYUAd-1" target="VxfXFjRvV8mxgG-HYUAd-3">
          <mxGeometry relative="1" as="geometry" />
        </mxCell>
        <mxCell id="VxfXFjRvV8mxgG-HYUAd-8" style="edgeStyle=orthogonalEdgeStyle;rounded=0;orthogonalLoop=1;jettySize=auto;html=1;exitX=0.5;exitY=1;exitDx=0;exitDy=0;entryX=0.5;entryY=0.167;entryDx=0;entryDy=0;entryPerimeter=0;" edge="1" parent="1" source="VxfXFjRvV8mxgG-HYUAd-3" target="VxfXFjRvV8mxgG-HYUAd-5">
          <mxGeometry relative="1" as="geometry" />
        </mxCell>
        <mxCell id="VxfXFjRvV8mxgG-HYUAd-32" style="edgeStyle=orthogonalEdgeStyle;rounded=0;orthogonalLoop=1;jettySize=auto;html=1;exitX=1;exitY=0.5;exitDx=0;exitDy=0;exitPerimeter=0;entryX=0.5;entryY=0;entryDx=0;entryDy=0;" edge="1" parent="1" source="VxfXFjRvV8mxgG-HYUAd-10" target="VxfXFjRvV8mxgG-HYUAd-30">
          <mxGeometry relative="1" as="geometry" />
        </mxCell>
        <mxCell id="VxfXFjRvV8mxgG-HYUAd-39" value="S" style="edgeLabel;html=1;align=center;verticalAlign=middle;resizable=0;points=[];" vertex="1" connectable="0" parent="VxfXFjRvV8mxgG-HYUAd-32">
          <mxGeometry x="-0.0752" relative="1" as="geometry">
            <mxPoint as="offset" />
          </mxGeometry>
        </mxCell>
        <mxCell id="VxfXFjRvV8mxgG-HYUAd-10" value="MEDIA &amp;gt;= 7" style="strokeWidth=2;html=1;shape=mxgraph.flowchart.decision;whiteSpace=wrap;fillColor=#ffe6cc;strokeColor=#d79b00;" vertex="1" parent="1">
          <mxGeometry x="330" y="-1900" width="100" height="100" as="geometry" />
        </mxCell>
        <mxCell id="VxfXFjRvV8mxgG-HYUAd-11" value="ANO = 3" style="strokeWidth=2;html=1;shape=mxgraph.flowchart.decision;whiteSpace=wrap;fillColor=#ffe6cc;strokeColor=#d79b00;" vertex="1" parent="1">
          <mxGeometry x="478" y="-1740" width="100" height="100" as="geometry" />
        </mxCell>
        <mxCell id="VxfXFjRvV8mxgG-HYUAd-13" value="NOVA PROVA" style="strokeWidth=2;html=1;shape=mxgraph.flowchart.display;whiteSpace=wrap;fillColor=#e1d5e7;strokeColor=#9673a6;" vertex="1" parent="1">
          <mxGeometry x="170" y="-1780" width="100" height="60" as="geometry" />
        </mxCell>
        <mxCell id="VxfXFjRvV8mxgG-HYUAd-14" style="edgeStyle=orthogonalEdgeStyle;rounded=0;orthogonalLoop=1;jettySize=auto;html=1;exitX=0;exitY=0.5;exitDx=0;exitDy=0;exitPerimeter=0;entryX=0.5;entryY=0;entryDx=0;entryDy=0;entryPerimeter=0;" edge="1" parent="1" source="VxfXFjRvV8mxgG-HYUAd-10" target="VxfXFjRvV8mxgG-HYUAd-13">
          <mxGeometry relative="1" as="geometry" />
        </mxCell>
        <mxCell id="VxfXFjRvV8mxgG-HYUAd-22" value="N" style="edgeLabel;html=1;align=center;verticalAlign=middle;resizable=0;points=[];" vertex="1" connectable="0" parent="VxfXFjRvV8mxgG-HYUAd-14">
          <mxGeometry x="-0.288" y="-1" relative="1" as="geometry">
            <mxPoint as="offset" />
          </mxGeometry>
        </mxCell>
        <mxCell id="VxfXFjRvV8mxgG-HYUAd-16" value="DIPLOMADO" style="strokeWidth=2;html=1;shape=mxgraph.flowchart.display;whiteSpace=wrap;fillColor=#e1d5e7;strokeColor=#9673a6;" vertex="1" parent="1">
          <mxGeometry x="610" y="-1610" width="100" height="60" as="geometry" />
        </mxCell>
        <mxCell id="VxfXFjRvV8mxgG-HYUAd-17" value="APROVADO" style="strokeWidth=2;html=1;shape=mxgraph.flowchart.display;whiteSpace=wrap;fillColor=#e1d5e7;strokeColor=#9673a6;" vertex="1" parent="1">
          <mxGeometry x="325" y="-1610" width="100" height="60" as="geometry" />
        </mxCell>
        <mxCell id="VxfXFjRvV8mxgG-HYUAd-18" style="edgeStyle=orthogonalEdgeStyle;rounded=0;orthogonalLoop=1;jettySize=auto;html=1;exitX=1;exitY=0.5;exitDx=0;exitDy=0;exitPerimeter=0;entryX=0.606;entryY=0.001;entryDx=0;entryDy=0;entryPerimeter=0;" edge="1" parent="1" source="VxfXFjRvV8mxgG-HYUAd-11" target="VxfXFjRvV8mxgG-HYUAd-16">
          <mxGeometry relative="1" as="geometry" />
        </mxCell>
        <mxCell id="VxfXFjRvV8mxgG-HYUAd-20" value="S" style="edgeLabel;html=1;align=center;verticalAlign=middle;resizable=0;points=[];" vertex="1" connectable="0" parent="VxfXFjRvV8mxgG-HYUAd-18">
          <mxGeometry x="-0.1995" relative="1" as="geometry">
            <mxPoint as="offset" />
          </mxGeometry>
        </mxCell>
        <mxCell id="VxfXFjRvV8mxgG-HYUAd-19" style="edgeStyle=orthogonalEdgeStyle;rounded=0;orthogonalLoop=1;jettySize=auto;html=1;exitX=0;exitY=0.5;exitDx=0;exitDy=0;exitPerimeter=0;entryX=0.5;entryY=0;entryDx=0;entryDy=0;entryPerimeter=0;" edge="1" parent="1" source="VxfXFjRvV8mxgG-HYUAd-11" target="VxfXFjRvV8mxgG-HYUAd-17">
          <mxGeometry relative="1" as="geometry" />
        </mxCell>
        <mxCell id="VxfXFjRvV8mxgG-HYUAd-21" value="N" style="edgeLabel;html=1;align=center;verticalAlign=middle;resizable=0;points=[];" vertex="1" connectable="0" parent="VxfXFjRvV8mxgG-HYUAd-19">
          <mxGeometry x="-0.3039" y="1" relative="1" as="geometry">
            <mxPoint as="offset" />
          </mxGeometry>
        </mxCell>
        <mxCell id="VxfXFjRvV8mxgG-HYUAd-23" value="" style="strokeWidth=2;html=1;shape=mxgraph.flowchart.start_2;whiteSpace=wrap;fillColor=#f5f5f5;gradientColor=#b3b3b3;strokeColor=#666666;" vertex="1" parent="1">
          <mxGeometry x="350" y="-1520" width="40" height="40" as="geometry" />
        </mxCell>
        <mxCell id="VxfXFjRvV8mxgG-HYUAd-24" style="edgeStyle=orthogonalEdgeStyle;rounded=0;orthogonalLoop=1;jettySize=auto;html=1;exitX=0.5;exitY=1;exitDx=0;exitDy=0;exitPerimeter=0;entryX=0;entryY=0.5;entryDx=0;entryDy=0;entryPerimeter=0;" edge="1" parent="1" source="VxfXFjRvV8mxgG-HYUAd-13" target="VxfXFjRvV8mxgG-HYUAd-23">
          <mxGeometry relative="1" as="geometry" />
        </mxCell>
        <mxCell id="VxfXFjRvV8mxgG-HYUAd-29" style="edgeStyle=orthogonalEdgeStyle;rounded=0;orthogonalLoop=1;jettySize=auto;html=1;exitX=0.5;exitY=1;exitDx=0;exitDy=0;exitPerimeter=0;entryX=0.5;entryY=0;entryDx=0;entryDy=0;entryPerimeter=0;" edge="1" parent="1" source="VxfXFjRvV8mxgG-HYUAd-23" target="VxfXFjRvV8mxgG-HYUAd-4">
          <mxGeometry relative="1" as="geometry" />
        </mxCell>
        <mxCell id="VxfXFjRvV8mxgG-HYUAd-30" value="ANO" style="html=1;strokeWidth=2;shape=manualInput;whiteSpace=wrap;rounded=1;size=26;arcSize=11;fillColor=#dae8fc;strokeColor=#6c8ebf;" vertex="1" parent="1">
          <mxGeometry x="477.5" y="-1830" width="100" height="60" as="geometry" />
        </mxCell>
        <mxCell id="VxfXFjRvV8mxgG-HYUAd-33" style="edgeStyle=orthogonalEdgeStyle;rounded=0;orthogonalLoop=1;jettySize=auto;html=1;exitX=0.5;exitY=1;exitDx=0;exitDy=0;entryX=0.5;entryY=0;entryDx=0;entryDy=0;entryPerimeter=0;" edge="1" parent="1" source="VxfXFjRvV8mxgG-HYUAd-30" target="VxfXFjRvV8mxgG-HYUAd-11">
          <mxGeometry relative="1" as="geometry" />
        </mxCell>
        <mxCell id="VxfXFjRvV8mxgG-HYUAd-34" value="" style="strokeWidth=2;html=1;shape=mxgraph.flowchart.start_2;whiteSpace=wrap;fillColor=#f5f5f5;gradientColor=#b3b3b3;strokeColor=#666666;" vertex="1" parent="1">
          <mxGeometry x="506.5" y="-1550" width="42" height="40" as="geometry" />
        </mxCell>
        <mxCell id="VxfXFjRvV8mxgG-HYUAd-35" style="edgeStyle=orthogonalEdgeStyle;rounded=0;orthogonalLoop=1;jettySize=auto;html=1;exitX=0.5;exitY=1;exitDx=0;exitDy=0;exitPerimeter=0;entryX=0;entryY=0.5;entryDx=0;entryDy=0;entryPerimeter=0;" edge="1" parent="1" source="VxfXFjRvV8mxgG-HYUAd-17" target="VxfXFjRvV8mxgG-HYUAd-34">
          <mxGeometry relative="1" as="geometry" />
        </mxCell>
        <mxCell id="VxfXFjRvV8mxgG-HYUAd-36" style="edgeStyle=orthogonalEdgeStyle;rounded=0;orthogonalLoop=1;jettySize=auto;html=1;exitX=0.5;exitY=1;exitDx=0;exitDy=0;exitPerimeter=0;entryX=1;entryY=0.5;entryDx=0;entryDy=0;entryPerimeter=0;" edge="1" parent="1" source="VxfXFjRvV8mxgG-HYUAd-16" target="VxfXFjRvV8mxgG-HYUAd-34">
          <mxGeometry relative="1" as="geometry" />
        </mxCell>
        <mxCell id="VxfXFjRvV8mxgG-HYUAd-38" style="edgeStyle=orthogonalEdgeStyle;rounded=0;orthogonalLoop=1;jettySize=auto;html=1;exitX=0.5;exitY=1;exitDx=0;exitDy=0;exitPerimeter=0;entryX=1;entryY=0.5;entryDx=0;entryDy=0;entryPerimeter=0;" edge="1" parent="1" source="VxfXFjRvV8mxgG-HYUAd-34" target="VxfXFjRvV8mxgG-HYUAd-23">
          <mxGeometry relative="1" as="geometry">
            <Array as="points">
              <mxPoint x="528" y="-1500" />
            </Array>
          </mxGeometry>
        </mxCell>
      </root>
    </mxGraphModel>
  </diagram>
</mxfile>
